<?xml version="1.0" encoding="UTF-8" standalone="no"?>
<svg
   xmlns:dc="http://purl.org/dc/elements/1.1/"
   xmlns:cc="http://creativecommons.org/ns#"
   xmlns:rdf="http://www.w3.org/1999/02/22-rdf-syntax-ns#"
   xmlns:svg="http://www.w3.org/2000/svg"
   xmlns="http://www.w3.org/2000/svg"
   xmlns:sodipodi="http://sodipodi.sourceforge.net/DTD/sodipodi-0.dtd"
   xmlns:inkscape="http://www.inkscape.org/namespaces/inkscape"
   viewBox="0 0 512 512"
   version="1.1"
   id="svg10"
   sodipodi:docname="icon.svg"
   inkscape:version="1.0.2 (e86c870879, 2021-01-15)">
  <metadata
     id="metadata16">
    <rdf:RDF>
      <cc:Work
         rdf:about="">
        <dc:format>image/svg+xml</dc:format>
        <dc:type
           rdf:resource="http://purl.org/dc/dcmitype/StillImage" />
      </cc:Work>
    </rdf:RDF>
  </metadata>
  <defs
     id="defs14" />
  <sodipodi:namedview
     pagecolor="#ffffff"
     bordercolor="#666666"
     borderopacity="1"
     objecttolerance="10"
     gridtolerance="10"
     guidetolerance="10"
     inkscape:pageopacity="0"
     inkscape:pageshadow="2"
     inkscape:window-width="1920"
     inkscape:window-height="1016"
     id="namedview12"
     showgrid="false"
     inkscape:zoom="1.3199734"
     inkscape:cx="186.61625"
     inkscape:cy="231.68206"
     inkscape:window-x="0"
     inkscape:window-y="27"
     inkscape:window-maximized="1"
     inkscape:current-layer="svg10"
     inkscape:document-rotation="0" />
  <rect
     fill="#0067a5"
     x="67.546318"
     y="40"
     width="376.90738"
     height="432"
     id="rect170"
     ry="25.998928"
     rx="26.68088"
     style="stroke-width:0.934061" />
  <g
     id="layer1"
     transform="matrix(0.69653518,0,0,0.69653518,79.625459,74.33602)"
     style="fill:#ffffff">
    <path
       id="path14"
       style="fill:#ffffff;fill-rule:evenodd"
       d="m 97.357,434.7 c 2.024,12.11 12.533,21.31 25.203,21.31 h 261.31 c 12.67,0 23.18,-9.2 25.21,-21.31 H 97.36 Z M 122.56,235.88 c -14.13,0 -25.558,11.44 -25.558,25.57 v 155.5 h 312.43 v -155.5 c 0,-14.13 -11.43,-25.57 -25.56,-25.57 h -15.59 c 0.22,-2.94 0.32,-66.24 0.32,-69.23 0,-63.72 -51.66,-115.38 -115.38,-115.38 -63.73,-0.002 -115.39,51.66 -115.39,115.38 0,2.99 0.11,66.29 0.32,69.23 h -15.59 z m 175.96,0 h -90.61 c -0.56,-2.87 -0.85,-66.17 -0.85,-69.23 0,-25.49 20.67,-46.15 46.16,-46.15 25.49,0 46.15,20.66 46.15,46.15 0,3.06 -0.28,66.36 -0.85,69.23 z" />
  </g>
</svg>
